<mxfile host="app.diagrams.net" modified="2023-06-25T16:08:49.168Z" agent="Mozilla/5.0 (Windows NT 10.0; Win64; x64) AppleWebKit/537.36 (KHTML, like Gecko) Chrome/114.0.0.0 Safari/537.36" etag="itRptdTxIM9UqTrjTgHV" version="21.5.0" type="device">
  <diagram name="Page-1" id="e7e014a7-5840-1c2e-5031-d8a46d1fe8dd">
    <mxGraphModel dx="3438" dy="1291" grid="1" gridSize="10" guides="0" tooltips="1" connect="1" arrows="1" fold="1" page="1" pageScale="1" pageWidth="1169" pageHeight="826" background="none" math="0" shadow="0">
      <root>
        <mxCell id="0" />
        <mxCell id="1" parent="0" />
        <mxCell id="2" value="Main Thread" style="swimlane;whiteSpace=wrap;" parent="1" vertex="1">
          <mxGeometry x="-920" y="210" width="1390" height="1260" as="geometry" />
        </mxCell>
        <mxCell id="5" value="main" style="ellipse;shape=startState;fillColor=#000000;strokeColor=#ff0000;" parent="2" vertex="1">
          <mxGeometry x="642.75" y="42" width="55.5" height="30" as="geometry" />
        </mxCell>
        <mxCell id="6" value="" style="edgeStyle=elbowEdgeStyle;elbow=horizontal;verticalAlign=bottom;endArrow=open;endSize=8;strokeColor=#FF0000;endFill=1;rounded=0" parent="2" source="5" target="7" edge="1">
          <mxGeometry x="100" y="40" as="geometry">
            <mxPoint x="672.25" y="112" as="targetPoint" />
          </mxGeometry>
        </mxCell>
        <mxCell id="YJ2P1yj1POSk0E6jh_ef-215" style="edgeStyle=none;shape=connector;rounded=0;orthogonalLoop=1;jettySize=auto;html=1;exitX=0.5;exitY=1;exitDx=0;exitDy=0;entryX=0.5;entryY=0;entryDx=0;entryDy=0;labelBackgroundColor=default;strokeColor=#FF0000;fontFamily=Helvetica;fontSize=11;fontColor=default;endArrow=open;endFill=1;" edge="1" parent="2" source="7" target="10">
          <mxGeometry relative="1" as="geometry" />
        </mxCell>
        <mxCell id="7" value="new GameFrame" style="" parent="2" vertex="1">
          <mxGeometry x="617.25" y="112" width="110" height="50" as="geometry" />
        </mxCell>
        <mxCell id="YJ2P1yj1POSk0E6jh_ef-57" style="edgeStyle=none;shape=connector;rounded=0;orthogonalLoop=1;jettySize=auto;html=1;exitX=0.5;exitY=1;exitDx=0;exitDy=0;entryX=0.515;entryY=0.6;entryDx=0;entryDy=0;entryPerimeter=0;labelBackgroundColor=default;strokeColor=#FF0000;fontFamily=Helvetica;fontSize=11;fontColor=default;endArrow=open;endFill=1;" edge="1" parent="2" source="10" target="YJ2P1yj1POSk0E6jh_ef-54">
          <mxGeometry relative="1" as="geometry" />
        </mxCell>
        <mxCell id="YJ2P1yj1POSk0E6jh_ef-218" style="edgeStyle=none;shape=connector;rounded=0;orthogonalLoop=1;jettySize=auto;html=1;exitX=0.25;exitY=1;exitDx=0;exitDy=0;entryX=0.25;entryY=0.5;entryDx=0;entryDy=0;entryPerimeter=0;labelBackgroundColor=default;strokeColor=#2D7600;fontFamily=Helvetica;fontSize=11;fontColor=default;endArrow=open;endFill=1;fillColor=#60a917;" edge="1" parent="2" source="10" target="YJ2P1yj1POSk0E6jh_ef-54">
          <mxGeometry relative="1" as="geometry" />
        </mxCell>
        <mxCell id="10" value="new GameManager&#xa;&#xa;chooseGameMode&#xa;zwraca Game o odpowiednich parametrach" style="" parent="2" vertex="1">
          <mxGeometry x="550" y="242" width="250" height="68" as="geometry" />
        </mxCell>
        <mxCell id="YJ2P1yj1POSk0E6jh_ef-78" style="edgeStyle=none;shape=connector;rounded=0;orthogonalLoop=1;jettySize=auto;html=1;exitX=0.5;exitY=1;exitDx=0;exitDy=0;entryX=0;entryY=0.5;entryDx=0;entryDy=0;entryPerimeter=0;labelBackgroundColor=default;strokeColor=#FF0000;fontFamily=Helvetica;fontSize=11;fontColor=default;endArrow=open;endFill=1;" edge="1" parent="2" source="YJ2P1yj1POSk0E6jh_ef-41" target="YJ2P1yj1POSk0E6jh_ef-75">
          <mxGeometry relative="1" as="geometry">
            <Array as="points">
              <mxPoint x="542.75" y="514" />
            </Array>
          </mxGeometry>
        </mxCell>
        <mxCell id="YJ2P1yj1POSk0E6jh_ef-41" value="Multiplayer&#xa;&#xa;new PlayerSnake&#xa;new PlayerSnake" style="" vertex="1" parent="2">
          <mxGeometry x="470" y="432" width="110" height="62" as="geometry" />
        </mxCell>
        <mxCell id="YJ2P1yj1POSk0E6jh_ef-76" style="edgeStyle=none;shape=connector;rounded=0;orthogonalLoop=1;jettySize=auto;html=1;exitX=0.5;exitY=1;exitDx=0;exitDy=0;entryX=0.508;entryY=0.442;entryDx=0;entryDy=0;entryPerimeter=0;labelBackgroundColor=default;strokeColor=#FF0000;fontFamily=Helvetica;fontSize=11;fontColor=default;endArrow=open;endFill=1;" edge="1" parent="2" source="YJ2P1yj1POSk0E6jh_ef-42" target="YJ2P1yj1POSk0E6jh_ef-75">
          <mxGeometry relative="1" as="geometry" />
        </mxCell>
        <mxCell id="YJ2P1yj1POSk0E6jh_ef-42" value="With_Computer&#xa;&#xa;new PlayerSnake&#xa;new ArtificialSnake" style="" vertex="1" parent="2">
          <mxGeometry x="617.25" y="444" width="110" height="50" as="geometry" />
        </mxCell>
        <mxCell id="YJ2P1yj1POSk0E6jh_ef-77" style="edgeStyle=none;shape=connector;rounded=0;orthogonalLoop=1;jettySize=auto;html=1;exitX=0.5;exitY=1;exitDx=0;exitDy=0;entryX=1;entryY=0.5;entryDx=0;entryDy=0;entryPerimeter=0;labelBackgroundColor=default;strokeColor=#FF0000;fontFamily=Helvetica;fontSize=11;fontColor=default;endArrow=open;endFill=1;" edge="1" parent="2" source="YJ2P1yj1POSk0E6jh_ef-45" target="YJ2P1yj1POSk0E6jh_ef-75">
          <mxGeometry relative="1" as="geometry">
            <Array as="points">
              <mxPoint x="817.75" y="514" />
            </Array>
          </mxGeometry>
        </mxCell>
        <mxCell id="YJ2P1yj1POSk0E6jh_ef-45" value="Singleplayer&#xa;(default)&#xa;&#xa;new PlayerSnake" style="" vertex="1" parent="2">
          <mxGeometry x="762.75" y="432" width="110" height="60" as="geometry" />
        </mxCell>
        <mxCell id="YJ2P1yj1POSk0E6jh_ef-67" style="edgeStyle=none;shape=connector;rounded=0;orthogonalLoop=1;jettySize=auto;html=1;exitX=0.75;exitY=0.5;exitDx=0;exitDy=0;exitPerimeter=0;entryX=0.5;entryY=0;entryDx=0;entryDy=0;labelBackgroundColor=default;strokeColor=#FF0000;fontFamily=Helvetica;fontSize=11;fontColor=default;endArrow=open;endFill=1;" edge="1" parent="2" source="YJ2P1yj1POSk0E6jh_ef-54" target="YJ2P1yj1POSk0E6jh_ef-45">
          <mxGeometry relative="1" as="geometry">
            <Array as="points">
              <mxPoint x="800" y="409" />
              <mxPoint x="822.75" y="409" />
            </Array>
          </mxGeometry>
        </mxCell>
        <mxCell id="YJ2P1yj1POSk0E6jh_ef-68" style="edgeStyle=none;shape=connector;rounded=0;orthogonalLoop=1;jettySize=auto;html=1;exitX=0.25;exitY=0.5;exitDx=0;exitDy=0;exitPerimeter=0;entryX=0.5;entryY=0;entryDx=0;entryDy=0;labelBackgroundColor=default;strokeColor=#FF0000;fontFamily=Helvetica;fontSize=11;fontColor=default;endArrow=open;endFill=1;" edge="1" parent="2" source="YJ2P1yj1POSk0E6jh_ef-54" target="YJ2P1yj1POSk0E6jh_ef-41">
          <mxGeometry relative="1" as="geometry">
            <Array as="points">
              <mxPoint x="525" y="409" />
            </Array>
          </mxGeometry>
        </mxCell>
        <mxCell id="YJ2P1yj1POSk0E6jh_ef-54" value="" style="shape=line;html=1;strokeWidth=6;strokeColor=#ff0000;fontFamily=Helvetica;fontSize=11;fontColor=default;" vertex="1" parent="2">
          <mxGeometry x="647.25" y="404" width="50" height="10" as="geometry" />
        </mxCell>
        <mxCell id="YJ2P1yj1POSk0E6jh_ef-55" value="" style="edgeStyle=orthogonalEdgeStyle;html=1;verticalAlign=bottom;endArrow=open;endSize=8;strokeColor=#ff0000;rounded=0;labelBackgroundColor=default;fontFamily=Helvetica;fontSize=11;fontColor=default;shape=connector;entryX=0.5;entryY=0;entryDx=0;entryDy=0;" edge="1" source="YJ2P1yj1POSk0E6jh_ef-54" parent="2" target="YJ2P1yj1POSk0E6jh_ef-42">
          <mxGeometry relative="1" as="geometry">
            <mxPoint x="710" y="424" as="targetPoint" />
          </mxGeometry>
        </mxCell>
        <mxCell id="YJ2P1yj1POSk0E6jh_ef-143" style="edgeStyle=none;shape=connector;rounded=0;orthogonalLoop=1;jettySize=auto;html=1;exitX=0.75;exitY=1;exitDx=0;exitDy=0;entryX=0;entryY=0.5;entryDx=0;entryDy=0;labelBackgroundColor=default;strokeColor=#FF0000;fontFamily=Helvetica;fontSize=11;fontColor=default;endArrow=open;endFill=1;" edge="1" parent="2" source="YJ2P1yj1POSk0E6jh_ef-69" target="YJ2P1yj1POSk0E6jh_ef-141">
          <mxGeometry relative="1" as="geometry">
            <Array as="points">
              <mxPoint x="685" y="672" />
            </Array>
          </mxGeometry>
        </mxCell>
        <mxCell id="YJ2P1yj1POSk0E6jh_ef-149" style="edgeStyle=none;shape=connector;rounded=0;orthogonalLoop=1;jettySize=auto;html=1;exitX=0;exitY=0.5;exitDx=0;exitDy=0;entryX=1;entryY=0.5;entryDx=0;entryDy=0;labelBackgroundColor=default;strokeColor=#FF0000;fontFamily=Helvetica;fontSize=11;fontColor=default;endArrow=open;endFill=1;" edge="1" parent="2" source="YJ2P1yj1POSk0E6jh_ef-69" target="YJ2P1yj1POSk0E6jh_ef-148">
          <mxGeometry relative="1" as="geometry" />
        </mxCell>
        <mxCell id="YJ2P1yj1POSk0E6jh_ef-69" value="new GameBoard" style="" vertex="1" parent="2">
          <mxGeometry x="602.75" y="584" width="110" height="50" as="geometry" />
        </mxCell>
        <mxCell id="YJ2P1yj1POSk0E6jh_ef-220" style="edgeStyle=none;shape=connector;rounded=0;orthogonalLoop=1;jettySize=auto;html=1;exitX=0.75;exitY=0.5;exitDx=0;exitDy=0;exitPerimeter=0;entryX=0.75;entryY=0;entryDx=0;entryDy=0;labelBackgroundColor=default;strokeColor=#FF0000;fontFamily=Helvetica;fontSize=11;fontColor=default;endArrow=open;endFill=1;" edge="1" parent="2" source="YJ2P1yj1POSk0E6jh_ef-75" target="YJ2P1yj1POSk0E6jh_ef-69">
          <mxGeometry relative="1" as="geometry" />
        </mxCell>
        <mxCell id="YJ2P1yj1POSk0E6jh_ef-221" style="edgeStyle=none;shape=connector;rounded=0;orthogonalLoop=1;jettySize=auto;html=1;exitX=0.25;exitY=0.5;exitDx=0;exitDy=0;exitPerimeter=0;entryX=0.5;entryY=0;entryDx=0;entryDy=0;labelBackgroundColor=default;strokeColor=#2D7600;fontFamily=Helvetica;fontSize=11;fontColor=default;endArrow=open;endFill=1;fillColor=#60a917;" edge="1" parent="2" source="YJ2P1yj1POSk0E6jh_ef-75" target="YJ2P1yj1POSk0E6jh_ef-148">
          <mxGeometry relative="1" as="geometry">
            <Array as="points">
              <mxPoint x="660" y="552" />
              <mxPoint x="470" y="552" />
            </Array>
          </mxGeometry>
        </mxCell>
        <mxCell id="YJ2P1yj1POSk0E6jh_ef-75" value="" style="shape=line;html=1;strokeWidth=6;strokeColor=#ff0000;fontFamily=Helvetica;fontSize=11;fontColor=default;" vertex="1" parent="2">
          <mxGeometry x="647.25" y="522" width="50" height="10" as="geometry" />
        </mxCell>
        <mxCell id="YJ2P1yj1POSk0E6jh_ef-83" value="With_Computer&#xa;&#xa;new PlayerSnake&#xa;new ArtificialSnake" style="" vertex="1" parent="2">
          <mxGeometry x="617.25" y="432" width="110" height="62" as="geometry" />
        </mxCell>
        <mxCell id="YJ2P1yj1POSk0E6jh_ef-141" value="Game.start()" style="rounded=1;whiteSpace=wrap;html=1;arcSize=40;fontColor=#000000;fillColor=#ffffc0;strokeColor=#ff0000;fontFamily=Helvetica;fontSize=11;" vertex="1" parent="2">
          <mxGeometry x="790" y="652" width="120" height="40" as="geometry" />
        </mxCell>
        <mxCell id="YJ2P1yj1POSk0E6jh_ef-145" value="Timer" style="shape=umlFrame;whiteSpace=wrap;html=1;pointerEvents=0;fontFamily=Helvetica;fontSize=11;fontColor=default;" vertex="1" parent="2">
          <mxGeometry x="40" y="712" width="570" height="488" as="geometry" />
        </mxCell>
        <mxCell id="YJ2P1yj1POSk0E6jh_ef-224" style="edgeStyle=none;shape=connector;rounded=0;orthogonalLoop=1;jettySize=auto;html=1;exitX=0.5;exitY=1;exitDx=0;exitDy=0;entryX=0.5;entryY=0;entryDx=0;entryDy=0;labelBackgroundColor=default;strokeColor=#FF0000;fontFamily=Helvetica;fontSize=11;fontColor=default;endArrow=open;endFill=1;" edge="1" parent="2" source="YJ2P1yj1POSk0E6jh_ef-146" target="YJ2P1yj1POSk0E6jh_ef-223">
          <mxGeometry relative="1" as="geometry" />
        </mxCell>
        <mxCell id="YJ2P1yj1POSk0E6jh_ef-146" value="Timer.start()" style="rounded=1;whiteSpace=wrap;html=1;arcSize=40;fontColor=#000000;fillColor=#ffffc0;strokeColor=#ff0000;fontFamily=Helvetica;fontSize=11;" vertex="1" parent="2">
          <mxGeometry x="180" y="592" width="120" height="40" as="geometry" />
        </mxCell>
        <mxCell id="YJ2P1yj1POSk0E6jh_ef-150" style="edgeStyle=none;shape=connector;rounded=0;orthogonalLoop=1;jettySize=auto;html=1;exitX=0;exitY=0.5;exitDx=0;exitDy=0;entryX=1;entryY=0.5;entryDx=0;entryDy=0;labelBackgroundColor=default;strokeColor=#FF0000;fontFamily=Helvetica;fontSize=11;fontColor=default;endArrow=open;endFill=1;" edge="1" parent="2" source="YJ2P1yj1POSk0E6jh_ef-148" target="YJ2P1yj1POSk0E6jh_ef-146">
          <mxGeometry relative="1" as="geometry" />
        </mxCell>
        <mxCell id="YJ2P1yj1POSk0E6jh_ef-148" value="initializeKeyAdapters();" style="rounded=1;whiteSpace=wrap;html=1;arcSize=40;fontColor=#000000;fillColor=#ffffc0;strokeColor=#ff0000;fontFamily=Helvetica;fontSize=11;" vertex="1" parent="2">
          <mxGeometry x="410" y="592" width="120" height="40" as="geometry" />
        </mxCell>
        <mxCell id="YJ2P1yj1POSk0E6jh_ef-151" value="paintCompononets()" style="shape=umlFrame;whiteSpace=wrap;html=1;pointerEvents=0;fontFamily=Helvetica;fontSize=11;fontColor=default;width=110;height=40;" vertex="1" parent="2">
          <mxGeometry x="60" y="762" width="470" height="408" as="geometry" />
        </mxCell>
        <mxCell id="YJ2P1yj1POSk0E6jh_ef-157" value="no" style="edgeStyle=none;shape=connector;rounded=0;orthogonalLoop=1;jettySize=auto;html=1;exitX=1;exitY=0.5;exitDx=0;exitDy=0;entryX=0;entryY=0.5;entryDx=0;entryDy=0;labelBackgroundColor=default;strokeColor=#FF0000;fontFamily=Helvetica;fontSize=11;fontColor=default;endArrow=open;endFill=1;" edge="1" parent="2" source="YJ2P1yj1POSk0E6jh_ef-152" target="YJ2P1yj1POSk0E6jh_ef-156">
          <mxGeometry relative="1" as="geometry" />
        </mxCell>
        <mxCell id="YJ2P1yj1POSk0E6jh_ef-163" value="yes" style="edgeStyle=none;shape=connector;rounded=0;orthogonalLoop=1;jettySize=auto;html=1;exitX=0.5;exitY=1;exitDx=0;exitDy=0;entryX=0.5;entryY=0;entryDx=0;entryDy=0;labelBackgroundColor=default;strokeColor=#FF0000;fontFamily=Helvetica;fontSize=11;fontColor=default;endArrow=open;endFill=1;" edge="1" parent="2" source="YJ2P1yj1POSk0E6jh_ef-152" target="YJ2P1yj1POSk0E6jh_ef-162">
          <mxGeometry relative="1" as="geometry" />
        </mxCell>
        <mxCell id="YJ2P1yj1POSk0E6jh_ef-152" value="Game.isRunning" style="rhombus;whiteSpace=wrap;html=1;fontColor=#000000;fillColor=#ffffc0;strokeColor=#ff0000;fontFamily=Helvetica;fontSize=11;" vertex="1" parent="2">
          <mxGeometry x="170" y="922" width="140" height="48" as="geometry" />
        </mxCell>
        <mxCell id="YJ2P1yj1POSk0E6jh_ef-159" style="edgeStyle=none;shape=connector;rounded=0;orthogonalLoop=1;jettySize=auto;html=1;exitX=1;exitY=0.5;exitDx=0;exitDy=0;entryX=0;entryY=0.5;entryDx=0;entryDy=0;labelBackgroundColor=default;strokeColor=#FF0000;fontFamily=Helvetica;fontSize=11;fontColor=default;endArrow=open;endFill=1;" edge="1" parent="2" source="YJ2P1yj1POSk0E6jh_ef-156" target="YJ2P1yj1POSk0E6jh_ef-158">
          <mxGeometry relative="1" as="geometry" />
        </mxCell>
        <mxCell id="YJ2P1yj1POSk0E6jh_ef-156" value="Timer.stop()" style="rounded=1;whiteSpace=wrap;html=1;arcSize=40;fontColor=#000000;fillColor=#ffffc0;strokeColor=#ff0000;fontFamily=Helvetica;fontSize=11;" vertex="1" parent="2">
          <mxGeometry x="360" y="932" width="120" height="40" as="geometry" />
        </mxCell>
        <mxCell id="YJ2P1yj1POSk0E6jh_ef-227" style="edgeStyle=none;shape=connector;rounded=0;orthogonalLoop=1;jettySize=auto;html=1;exitX=0.5;exitY=1;exitDx=0;exitDy=0;entryX=0.5;entryY=0;entryDx=0;entryDy=0;labelBackgroundColor=default;strokeColor=#FF0000;fontFamily=Helvetica;fontSize=11;fontColor=default;endArrow=open;endFill=1;" edge="1" parent="2" source="YJ2P1yj1POSk0E6jh_ef-158" target="YJ2P1yj1POSk0E6jh_ef-160">
          <mxGeometry relative="1" as="geometry" />
        </mxCell>
        <mxCell id="YJ2P1yj1POSk0E6jh_ef-158" value="&lt;div style=&quot;background-color:#2f2f2f;padding:0px 0px 0px 2px;&quot;&gt;&lt;div style=&quot;color: rgb(170, 170, 170); font-size: 10pt;&quot;&gt;&lt;p style=&quot;margin: 0px;&quot;&gt;            &lt;span style=&quot;color: rgb(102, 225, 248);&quot;&gt;restartButton&lt;/span&gt;&lt;span style=&quot;color: rgb(230, 230, 250);&quot;&gt;.&lt;/span&gt;&lt;span style=&quot;color: rgb(205, 246, 104);&quot;&gt;setVisible&lt;/span&gt;&lt;span style=&quot;color: rgb(249, 250, 244);&quot;&gt;(&lt;/span&gt;&lt;span style=&quot;color: rgb(204, 108, 29);&quot;&gt;true&lt;/span&gt;&lt;span style=&quot;color: rgb(249, 250, 244);&quot;&gt;)&lt;/span&gt;&lt;span style=&quot;color: rgb(230, 230, 250);&quot;&gt;;&lt;/span&gt;&lt;/p&gt;&lt;p style=&quot;margin: 0px;&quot;&gt;&lt;span style=&quot;color:#d9e8f7;&quot;&gt;            &lt;/span&gt;&lt;span style=&quot;color:#a7ec21;&quot;&gt;drawScore&lt;/span&gt;&lt;span style=&quot;color:#f9faf4;&quot;&gt;(&lt;/span&gt;&lt;span style=&quot;color:#79abff;&quot;&gt;g&lt;/span&gt;&lt;span style=&quot;color:#f9faf4;&quot;&gt;)&lt;/span&gt;&lt;span style=&quot;color:#e6e6fa;&quot;&gt;;&lt;/span&gt;&lt;/p&gt;&lt;p style=&quot;margin: 0px;&quot;&gt;&lt;span style=&quot;color:#d9e8f7;&quot;&gt;            &lt;/span&gt;&lt;span style=&quot;color:#a7ec21;border:solid 1pt #5e5e5e;&quot;&gt;drawGameOver&lt;/span&gt;&lt;span style=&quot;color:#f9faf4;&quot;&gt;(&lt;/span&gt;&lt;span style=&quot;color:#79abff;&quot;&gt;g&lt;/span&gt;&lt;span style=&quot;color:#f9faf4;&quot;&gt;)&lt;/span&gt;&lt;span style=&quot;color:#e6e6fa;&quot;&gt;;&lt;/span&gt;&lt;/p&gt;&lt;p style=&quot;margin: 0px;&quot;&gt;&lt;span style=&quot;color: rgb(217, 232, 247);&quot;&gt;            &lt;/span&gt;&lt;span style=&quot;color: rgb(167, 236, 33);&quot;&gt;drawBestScores&lt;/span&gt;&lt;span style=&quot;color: rgb(249, 250, 244);&quot;&gt;(&lt;/span&gt;&lt;span style=&quot;color: rgb(121, 171, 255);&quot;&gt;g&lt;/span&gt;&lt;span style=&quot;color: rgb(249, 250, 244);&quot;&gt;)&lt;/span&gt;&lt;span style=&quot;color: rgb(230, 230, 250);&quot;&gt;;&lt;/span&gt;&lt;/p&gt;&lt;/div&gt;&lt;/div&gt;" style="rounded=1;whiteSpace=wrap;html=1;arcSize=40;fontColor=#000000;fillColor=#ffffc0;strokeColor=#ff0000;fontFamily=Helvetica;fontSize=11;" vertex="1" parent="2">
          <mxGeometry x="630" y="792" width="200" height="78" as="geometry" />
        </mxCell>
        <mxCell id="YJ2P1yj1POSk0E6jh_ef-160" value="idle&lt;br&gt;wait for restart button" style="html=1;whiteSpace=wrap;fontFamily=Helvetica;fontSize=11;fontColor=default;" vertex="1" parent="2">
          <mxGeometry x="680" y="930" width="110" height="50" as="geometry" />
        </mxCell>
        <mxCell id="YJ2P1yj1POSk0E6jh_ef-225" style="edgeStyle=none;shape=connector;rounded=0;orthogonalLoop=1;jettySize=auto;html=1;exitX=0;exitY=0.5;exitDx=0;exitDy=0;entryX=0;entryY=0.5;entryDx=0;entryDy=0;labelBackgroundColor=default;strokeColor=#FF0000;fontFamily=Helvetica;fontSize=11;fontColor=default;endArrow=open;endFill=1;" edge="1" parent="2" source="YJ2P1yj1POSk0E6jh_ef-162" target="YJ2P1yj1POSk0E6jh_ef-223">
          <mxGeometry relative="1" as="geometry">
            <Array as="points">
              <mxPoint x="90" y="1066" />
              <mxPoint x="90" y="850" />
            </Array>
          </mxGeometry>
        </mxCell>
        <mxCell id="YJ2P1yj1POSk0E6jh_ef-162" value="&lt;div style=&quot;background-color:#2f2f2f;padding:0px 0px 0px 2px;&quot;&gt;&lt;div style=&quot;color: rgb(170, 170, 170); font-size: 10pt;&quot;&gt;&lt;p style=&quot;margin: 0px;&quot;&gt;            &lt;span style=&quot;color: rgb(102, 225, 248);&quot;&gt;restartButton&lt;/span&gt;&lt;span style=&quot;color: rgb(230, 230, 250);&quot;&gt;.&lt;/span&gt;&lt;span style=&quot;color: rgb(205, 246, 104);&quot;&gt;setVisible&lt;/span&gt;&lt;span style=&quot;color: rgb(249, 250, 244);&quot;&gt;(&lt;/span&gt;&lt;span style=&quot;color: rgb(204, 108, 29);&quot;&gt;false&lt;/span&gt;&lt;span style=&quot;color: rgb(249, 250, 244);&quot;&gt;)&lt;/span&gt;&lt;span style=&quot;color: rgb(230, 230, 250);&quot;&gt;;&lt;/span&gt;&lt;/p&gt;&lt;p style=&quot;margin: 0px;&quot;&gt;&lt;span style=&quot;color:#d9e8f7;&quot;&gt;            &lt;/span&gt;&lt;span style=&quot;color:#a7ec21;&quot;&gt;drawBoardLines&lt;/span&gt;&lt;span style=&quot;color:#f9faf4;&quot;&gt;(&lt;/span&gt;&lt;span style=&quot;color:#79abff;&quot;&gt;g&lt;/span&gt;&lt;span style=&quot;color:#f9faf4;&quot;&gt;)&lt;/span&gt;&lt;span style=&quot;color:#e6e6fa;&quot;&gt;;&lt;/span&gt;&lt;/p&gt;&lt;p style=&quot;margin: 0px;&quot;&gt;&lt;span style=&quot;color:#d9e8f7;&quot;&gt;            &lt;/span&gt;&lt;span style=&quot;color:#a7ec21;&quot;&gt;drawScore&lt;/span&gt;&lt;span style=&quot;color:#f9faf4;&quot;&gt;(&lt;/span&gt;&lt;span style=&quot;color:#79abff;&quot;&gt;g&lt;/span&gt;&lt;span style=&quot;color:#f9faf4;&quot;&gt;)&lt;/span&gt;&lt;span style=&quot;color:#e6e6fa;&quot;&gt;;&lt;/span&gt;&lt;/p&gt;&lt;p style=&quot;margin: 0px;&quot;&gt;&lt;span style=&quot;color: rgb(217, 232, 247);&quot;&gt;            &lt;/span&gt;&lt;span style=&quot;color: rgb(167, 236, 33);&quot;&gt;drawEntities&lt;/span&gt;&lt;span style=&quot;color: rgb(249, 250, 244);&quot;&gt;(&lt;/span&gt;&lt;span style=&quot;color: rgb(121, 171, 255);&quot;&gt;g&lt;/span&gt;&lt;span style=&quot;color: rgb(249, 250, 244);&quot;&gt;)&lt;/span&gt;&lt;span style=&quot;color: rgb(230, 230, 250);&quot;&gt;;&lt;/span&gt;&lt;/p&gt;&lt;/div&gt;&lt;/div&gt;" style="rounded=1;whiteSpace=wrap;html=1;arcSize=40;fontColor=#000000;fillColor=#ffffc0;strokeColor=#ff0000;fontFamily=Helvetica;fontSize=11;" vertex="1" parent="2">
          <mxGeometry x="130" y="1022" width="220" height="88" as="geometry" />
        </mxCell>
        <mxCell id="YJ2P1yj1POSk0E6jh_ef-214" style="edgeStyle=none;shape=connector;rounded=0;orthogonalLoop=1;jettySize=auto;html=1;exitX=0.5;exitY=1;exitDx=0;exitDy=0;labelBackgroundColor=default;strokeColor=#2D7600;fontFamily=Helvetica;fontSize=11;fontColor=default;endArrow=open;endFill=1;fillColor=#60a917;" edge="1" parent="2" source="YJ2P1yj1POSk0E6jh_ef-164" target="YJ2P1yj1POSk0E6jh_ef-213">
          <mxGeometry relative="1" as="geometry" />
        </mxCell>
        <mxCell id="YJ2P1yj1POSk0E6jh_ef-164" value="restart Button" style="ellipse;html=1;shape=startState;fillColor=#008a00;strokeColor=#005700;fontFamily=Helvetica;fontSize=11;fontColor=#ffffff;" vertex="1" parent="2">
          <mxGeometry x="980" y="730" width="130" height="30" as="geometry" />
        </mxCell>
        <mxCell id="YJ2P1yj1POSk0E6jh_ef-168" value="restartGame()" style="shape=umlFrame;whiteSpace=wrap;html=1;pointerEvents=0;fontFamily=Helvetica;fontSize=11;fontColor=default;width=90;height=40;" vertex="1" parent="2">
          <mxGeometry x="940" y="790" width="300" height="200" as="geometry" />
        </mxCell>
        <mxCell id="YJ2P1yj1POSk0E6jh_ef-216" style="edgeStyle=none;shape=connector;rounded=0;orthogonalLoop=1;jettySize=auto;html=1;exitX=0.5;exitY=1;exitDx=0;exitDy=0;entryX=0.25;entryY=0;entryDx=0;entryDy=0;labelBackgroundColor=default;strokeColor=#2D7600;fontFamily=Helvetica;fontSize=11;fontColor=default;endArrow=open;endFill=1;fillColor=#60a917;" edge="1" parent="2" source="YJ2P1yj1POSk0E6jh_ef-213" target="10">
          <mxGeometry relative="1" as="geometry">
            <Array as="points">
              <mxPoint x="1040" y="940" />
              <mxPoint x="1200" y="940" />
              <mxPoint x="1200" y="182" />
              <mxPoint x="613" y="182" />
            </Array>
          </mxGeometry>
        </mxCell>
        <mxCell id="YJ2P1yj1POSk0E6jh_ef-213" value="removeKeyAdapters();" style="rounded=1;whiteSpace=wrap;html=1;arcSize=40;fontColor=#ffffff;fillColor=#60a917;strokeColor=#2D7600;fontFamily=Helvetica;fontSize=11;" vertex="1" parent="2">
          <mxGeometry x="980" y="840" width="120" height="40" as="geometry" />
        </mxCell>
        <mxCell id="YJ2P1yj1POSk0E6jh_ef-226" style="edgeStyle=none;shape=connector;rounded=0;orthogonalLoop=1;jettySize=auto;html=1;exitX=0.5;exitY=1;exitDx=0;exitDy=0;entryX=0.5;entryY=0;entryDx=0;entryDy=0;labelBackgroundColor=default;strokeColor=#FF0000;fontFamily=Helvetica;fontSize=11;fontColor=default;endArrow=open;endFill=1;" edge="1" parent="2" source="YJ2P1yj1POSk0E6jh_ef-223" target="YJ2P1yj1POSk0E6jh_ef-152">
          <mxGeometry relative="1" as="geometry" />
        </mxCell>
        <mxCell id="YJ2P1yj1POSk0E6jh_ef-223" value="Timer.sleep" style="rounded=1;whiteSpace=wrap;html=1;arcSize=40;fontColor=#000000;fillColor=#ffffc0;strokeColor=#ff0000;fontFamily=Helvetica;fontSize=11;" vertex="1" parent="2">
          <mxGeometry x="180" y="830" width="120" height="40" as="geometry" />
        </mxCell>
        <mxCell id="YJ2P1yj1POSk0E6jh_ef-232" value="KeyEvent" style="ellipse;html=1;shape=startState;fillColor=#1ba1e2;strokeColor=#006EAF;fontFamily=Helvetica;fontSize=11;fontColor=#ffffff;" vertex="1" parent="2">
          <mxGeometry x="1200" y="1050" width="110" height="30" as="geometry" />
        </mxCell>
        <mxCell id="3" value="Game Thread" style="swimlane;whiteSpace=wrap" parent="1" vertex="1">
          <mxGeometry x="550" y="190" width="640" height="1060" as="geometry" />
        </mxCell>
        <mxCell id="YJ2P1yj1POSk0E6jh_ef-128" style="edgeStyle=none;shape=connector;rounded=0;orthogonalLoop=1;jettySize=auto;html=1;exitX=0.5;exitY=1;exitDx=0;exitDy=0;entryX=0.5;entryY=0;entryDx=0;entryDy=0;labelBackgroundColor=default;strokeColor=#FF0000;fontFamily=Helvetica;fontSize=11;fontColor=default;endArrow=open;endFill=1;" edge="1" parent="3" source="13" target="YJ2P1yj1POSk0E6jh_ef-126">
          <mxGeometry relative="1" as="geometry" />
        </mxCell>
        <mxCell id="13" value="" style="ellipse;shape=startState;fillColor=#000000;strokeColor=#ff0000;" parent="3" vertex="1">
          <mxGeometry x="140" y="40" width="30" height="30" as="geometry" />
        </mxCell>
        <mxCell id="38" value="" style="ellipse;shape=endState;fillColor=#000000;strokeColor=#ff0000" parent="3" vertex="1">
          <mxGeometry x="222.5" y="275" width="30" height="30" as="geometry" />
        </mxCell>
        <mxCell id="YJ2P1yj1POSk0E6jh_ef-98" value="yes" style="edgeStyle=none;shape=connector;rounded=0;orthogonalLoop=1;jettySize=auto;exitX=0.5;exitY=1;exitDx=0;exitDy=0;labelBackgroundColor=default;strokeColor=#FF0000;fontFamily=Helvetica;fontSize=11;fontColor=default;endArrow=open;endFill=1;html=1;entryX=0.5;entryY=0;entryDx=0;entryDy=0;" edge="1" parent="3" source="YJ2P1yj1POSk0E6jh_ef-91" target="YJ2P1yj1POSk0E6jh_ef-106">
          <mxGeometry relative="1" as="geometry">
            <mxPoint x="240" y="362" as="targetPoint" />
          </mxGeometry>
        </mxCell>
        <mxCell id="YJ2P1yj1POSk0E6jh_ef-91" value="isRunning" style="rhombus;whiteSpace=wrap;html=1;fontColor=#000000;fillColor=#ffffc0;strokeColor=#ff0000;fontFamily=Helvetica;fontSize=11;" vertex="1" parent="3">
          <mxGeometry x="115" y="270" width="80" height="40" as="geometry" />
        </mxCell>
        <mxCell id="YJ2P1yj1POSk0E6jh_ef-92" value="no" style="edgeStyle=orthogonalEdgeStyle;html=1;align=left;verticalAlign=bottom;endArrow=open;endSize=8;strokeColor=#ff0000;rounded=0;labelBackgroundColor=default;fontFamily=Helvetica;fontSize=11;fontColor=default;shape=connector;entryX=0;entryY=0.5;entryDx=0;entryDy=0;" edge="1" source="YJ2P1yj1POSk0E6jh_ef-91" parent="3" target="38">
          <mxGeometry x="-1" relative="1" as="geometry">
            <mxPoint x="230" y="290" as="targetPoint" />
          </mxGeometry>
        </mxCell>
        <mxCell id="YJ2P1yj1POSk0E6jh_ef-97" value="for each Entity" style="shape=umlFrame;whiteSpace=wrap;html=1;pointerEvents=0;fontFamily=Helvetica;fontSize=11;fontColor=default;width=85;height=30;" vertex="1" parent="3">
          <mxGeometry x="75" y="372" width="235" height="178" as="geometry" />
        </mxCell>
        <mxCell id="YJ2P1yj1POSk0E6jh_ef-100" value="update();" style="shape=umlFrame;whiteSpace=wrap;html=1;pointerEvents=0;fontFamily=Helvetica;fontSize=11;fontColor=default;width=85;height=30;" vertex="1" parent="3">
          <mxGeometry x="45" y="162" width="295" height="468" as="geometry" />
        </mxCell>
        <mxCell id="YJ2P1yj1POSk0E6jh_ef-111" value="catch" style="edgeStyle=none;shape=connector;rounded=0;orthogonalLoop=1;jettySize=auto;html=1;exitX=1;exitY=0.5;exitDx=0;exitDy=0;entryX=0;entryY=0.5;entryDx=0;entryDy=0;labelBackgroundColor=default;strokeColor=#FF0000;fontFamily=Helvetica;fontSize=11;fontColor=default;endArrow=open;endFill=1;" edge="1" parent="3" source="YJ2P1yj1POSk0E6jh_ef-103" target="YJ2P1yj1POSk0E6jh_ef-110">
          <mxGeometry relative="1" as="geometry" />
        </mxCell>
        <mxCell id="YJ2P1yj1POSk0E6jh_ef-122" style="edgeStyle=none;shape=connector;rounded=0;orthogonalLoop=1;jettySize=auto;html=1;exitX=0.5;exitY=1;exitDx=0;exitDy=0;entryX=0.5;entryY=0;entryDx=0;entryDy=0;labelBackgroundColor=default;strokeColor=#FF0000;fontFamily=Helvetica;fontSize=11;fontColor=default;endArrow=open;endFill=1;" edge="1" parent="3" source="YJ2P1yj1POSk0E6jh_ef-103" target="YJ2P1yj1POSk0E6jh_ef-121">
          <mxGeometry relative="1" as="geometry" />
        </mxCell>
        <mxCell id="YJ2P1yj1POSk0E6jh_ef-103" value="CollisionException" style="rhombus;whiteSpace=wrap;html=1;fontColor=#000000;fillColor=#ffffc0;strokeColor=#ff0000;fontFamily=Helvetica;fontSize=11;" vertex="1" parent="3">
          <mxGeometry x="87.5" y="480" width="135" height="60" as="geometry" />
        </mxCell>
        <mxCell id="YJ2P1yj1POSk0E6jh_ef-108" style="edgeStyle=none;shape=connector;rounded=0;orthogonalLoop=1;jettySize=auto;html=1;exitX=0.5;exitY=1;exitDx=0;exitDy=0;entryX=0.5;entryY=0;entryDx=0;entryDy=0;labelBackgroundColor=default;strokeColor=#FF0000;fontFamily=Helvetica;fontSize=11;fontColor=default;endArrow=open;endFill=1;" edge="1" parent="3" source="YJ2P1yj1POSk0E6jh_ef-106" target="YJ2P1yj1POSk0E6jh_ef-103">
          <mxGeometry relative="1" as="geometry" />
        </mxCell>
        <mxCell id="YJ2P1yj1POSk0E6jh_ef-106" value="entity.update()" style="rounded=1;whiteSpace=wrap;html=1;arcSize=40;fontColor=#000000;fillColor=#ffffc0;strokeColor=#ff0000;fontFamily=Helvetica;fontSize=11;" vertex="1" parent="3">
          <mxGeometry x="95" y="420" width="120" height="40" as="geometry" />
        </mxCell>
        <mxCell id="YJ2P1yj1POSk0E6jh_ef-109" value="gameover();" style="shape=umlFrame;whiteSpace=wrap;html=1;pointerEvents=0;fontFamily=Helvetica;fontSize=11;fontColor=default;width=85;height=30;" vertex="1" parent="3">
          <mxGeometry x="380" y="432" width="235" height="238" as="geometry" />
        </mxCell>
        <mxCell id="YJ2P1yj1POSk0E6jh_ef-114" style="edgeStyle=none;shape=connector;rounded=0;orthogonalLoop=1;jettySize=auto;html=1;exitX=0.5;exitY=1;exitDx=0;exitDy=0;entryX=0.5;entryY=0;entryDx=0;entryDy=0;labelBackgroundColor=default;strokeColor=#FF0000;fontFamily=Helvetica;fontSize=11;fontColor=default;endArrow=open;endFill=1;" edge="1" parent="3" source="YJ2P1yj1POSk0E6jh_ef-110" target="YJ2P1yj1POSk0E6jh_ef-113">
          <mxGeometry relative="1" as="geometry" />
        </mxCell>
        <mxCell id="YJ2P1yj1POSk0E6jh_ef-110" value="saveScores();&lt;br&gt;loadTopScores();" style="rounded=1;whiteSpace=wrap;html=1;arcSize=40;fontColor=#000000;fillColor=#ffffc0;strokeColor=#ff0000;fontFamily=Helvetica;fontSize=11;" vertex="1" parent="3">
          <mxGeometry x="427.5" y="490" width="120" height="40" as="geometry" />
        </mxCell>
        <mxCell id="YJ2P1yj1POSk0E6jh_ef-120" style="edgeStyle=none;shape=connector;rounded=0;orthogonalLoop=1;jettySize=auto;html=1;exitX=1;exitY=0.5;exitDx=0;exitDy=0;entryX=1;entryY=0.5;entryDx=0;entryDy=0;entryPerimeter=0;labelBackgroundColor=default;strokeColor=#FF0000;fontFamily=Helvetica;fontSize=11;fontColor=default;endArrow=open;endFill=1;" edge="1" parent="3" source="YJ2P1yj1POSk0E6jh_ef-113" target="YJ2P1yj1POSk0E6jh_ef-115">
          <mxGeometry relative="1" as="geometry">
            <Array as="points">
              <mxPoint x="600" y="582" />
              <mxPoint x="600" y="152" />
              <mxPoint x="180" y="152" />
            </Array>
          </mxGeometry>
        </mxCell>
        <mxCell id="YJ2P1yj1POSk0E6jh_ef-113" value="isRunning = false" style="rounded=1;whiteSpace=wrap;html=1;arcSize=40;fontColor=#000000;fillColor=#ffffc0;strokeColor=#ff0000;fontFamily=Helvetica;fontSize=11;" vertex="1" parent="3">
          <mxGeometry x="427.5" y="562" width="120" height="40" as="geometry" />
        </mxCell>
        <mxCell id="YJ2P1yj1POSk0E6jh_ef-115" value="" style="shape=line;html=1;strokeWidth=6;strokeColor=#ff0000;fontFamily=Helvetica;fontSize=11;fontColor=default;" vertex="1" parent="3">
          <mxGeometry x="130" y="237" width="50" height="10" as="geometry" />
        </mxCell>
        <mxCell id="YJ2P1yj1POSk0E6jh_ef-116" value="" style="edgeStyle=orthogonalEdgeStyle;html=1;verticalAlign=bottom;endArrow=open;endSize=8;strokeColor=#ff0000;rounded=0;labelBackgroundColor=default;fontFamily=Helvetica;fontSize=11;fontColor=default;shape=connector;entryX=0.5;entryY=0;entryDx=0;entryDy=0;" edge="1" source="YJ2P1yj1POSk0E6jh_ef-115" parent="3" target="YJ2P1yj1POSk0E6jh_ef-91">
          <mxGeometry relative="1" as="geometry">
            <mxPoint x="280" y="252" as="targetPoint" />
          </mxGeometry>
        </mxCell>
        <mxCell id="YJ2P1yj1POSk0E6jh_ef-124" style="edgeStyle=none;shape=connector;rounded=0;orthogonalLoop=1;jettySize=auto;html=1;exitX=0.5;exitY=1;exitDx=0;exitDy=0;entryX=0;entryY=0.5;entryDx=0;entryDy=0;entryPerimeter=0;labelBackgroundColor=default;strokeColor=#FF0000;fontFamily=Helvetica;fontSize=11;fontColor=default;endArrow=open;endFill=1;" edge="1" parent="3" source="YJ2P1yj1POSk0E6jh_ef-121" target="YJ2P1yj1POSk0E6jh_ef-115">
          <mxGeometry relative="1" as="geometry">
            <Array as="points">
              <mxPoint x="155" y="650" />
              <mxPoint x="30" y="650" />
              <mxPoint x="30" y="200" />
              <mxPoint x="130" y="200" />
            </Array>
          </mxGeometry>
        </mxCell>
        <mxCell id="YJ2P1yj1POSk0E6jh_ef-121" value="sleep(100)" style="rounded=1;whiteSpace=wrap;html=1;arcSize=40;fontColor=#000000;fillColor=#ffffc0;strokeColor=#ff0000;fontFamily=Helvetica;fontSize=11;" vertex="1" parent="3">
          <mxGeometry x="95" y="570" width="120" height="40" as="geometry" />
        </mxCell>
        <mxCell id="YJ2P1yj1POSk0E6jh_ef-127" style="edgeStyle=none;shape=connector;rounded=0;orthogonalLoop=1;jettySize=auto;html=1;exitX=0.5;exitY=1;exitDx=0;exitDy=0;entryX=0.25;entryY=0.5;entryDx=0;entryDy=0;entryPerimeter=0;labelBackgroundColor=default;strokeColor=#FF0000;fontFamily=Helvetica;fontSize=11;fontColor=default;endArrow=open;endFill=1;" edge="1" parent="3" source="YJ2P1yj1POSk0E6jh_ef-126" target="YJ2P1yj1POSk0E6jh_ef-115">
          <mxGeometry relative="1" as="geometry" />
        </mxCell>
        <mxCell id="YJ2P1yj1POSk0E6jh_ef-126" value="isRunning = false" style="rounded=1;whiteSpace=wrap;html=1;arcSize=40;fontColor=#000000;fillColor=#ffffc0;strokeColor=#ff0000;fontFamily=Helvetica;fontSize=11;" vertex="1" parent="3">
          <mxGeometry x="95" y="100" width="120" height="40" as="geometry" />
        </mxCell>
        <mxCell id="YJ2P1yj1POSk0E6jh_ef-144" style="edgeStyle=none;shape=connector;rounded=0;orthogonalLoop=1;jettySize=auto;html=1;exitX=1;exitY=0.5;exitDx=0;exitDy=0;entryX=0;entryY=0.5;entryDx=0;entryDy=0;labelBackgroundColor=default;strokeColor=#FF0000;fontFamily=Helvetica;fontSize=11;fontColor=default;endArrow=open;endFill=1;" edge="1" parent="1" source="YJ2P1yj1POSk0E6jh_ef-141" target="13">
          <mxGeometry relative="1" as="geometry">
            <Array as="points">
              <mxPoint x="400" y="852" />
              <mxPoint x="400" y="250" />
            </Array>
          </mxGeometry>
        </mxCell>
        <mxCell id="YJ2P1yj1POSk0E6jh_ef-237" style="edgeStyle=none;shape=connector;rounded=0;orthogonalLoop=1;jettySize=auto;html=1;exitX=0.5;exitY=1;exitDx=0;exitDy=0;entryX=0.5;entryY=0;entryDx=0;entryDy=0;labelBackgroundColor=default;strokeColor=#006EAF;fontFamily=Helvetica;fontSize=11;fontColor=#ffffff;endArrow=open;endFill=1;fillColor=#1ba1e2;" edge="1" parent="1" source="YJ2P1yj1POSk0E6jh_ef-234" target="YJ2P1yj1POSk0E6jh_ef-236">
          <mxGeometry relative="1" as="geometry" />
        </mxCell>
        <mxCell id="YJ2P1yj1POSk0E6jh_ef-234" value="PlayerSnake" style="html=1;whiteSpace=wrap;fontFamily=Helvetica;fontSize=11;fontColor=#ffffff;fillColor=#1ba1e2;strokeColor=#006EAF;" vertex="1" parent="1">
          <mxGeometry x="810" y="920" width="110" height="50" as="geometry" />
        </mxCell>
        <mxCell id="YJ2P1yj1POSk0E6jh_ef-240" style="edgeStyle=none;shape=connector;rounded=0;orthogonalLoop=1;jettySize=auto;html=1;exitX=0.5;exitY=1;exitDx=0;exitDy=0;entryX=0.5;entryY=0;entryDx=0;entryDy=0;labelBackgroundColor=default;strokeColor=#006EAF;fontFamily=Helvetica;fontSize=11;fontColor=#ffffff;endArrow=open;endFill=1;fillColor=#1ba1e2;" edge="1" parent="1" source="YJ2P1yj1POSk0E6jh_ef-236" target="YJ2P1yj1POSk0E6jh_ef-238">
          <mxGeometry relative="1" as="geometry" />
        </mxCell>
        <mxCell id="YJ2P1yj1POSk0E6jh_ef-236" value="Snake" style="html=1;whiteSpace=wrap;fontFamily=Helvetica;fontSize=11;fontColor=#ffffff;fillColor=#1ba1e2;strokeColor=#006EAF;" vertex="1" parent="1">
          <mxGeometry x="810" y="990" width="110" height="50" as="geometry" />
        </mxCell>
        <mxCell id="YJ2P1yj1POSk0E6jh_ef-238" value="setDirection(Direction)" style="rounded=1;whiteSpace=wrap;html=1;arcSize=40;fontColor=#ffffff;fillColor=#1ba1e2;strokeColor=#006EAF;fontFamily=Helvetica;fontSize=11;" vertex="1" parent="1">
          <mxGeometry x="810" y="1070" width="120" height="40" as="geometry" />
        </mxCell>
        <mxCell id="YJ2P1yj1POSk0E6jh_ef-235" style="edgeStyle=none;shape=connector;rounded=0;orthogonalLoop=1;jettySize=auto;html=1;exitX=0.5;exitY=1;exitDx=0;exitDy=0;entryX=0.5;entryY=0;entryDx=0;entryDy=0;labelBackgroundColor=default;strokeColor=#006EAF;fontFamily=Helvetica;fontSize=11;fontColor=default;endArrow=open;endFill=1;fillColor=#1ba1e2;" edge="1" parent="1" source="YJ2P1yj1POSk0E6jh_ef-232" target="YJ2P1yj1POSk0E6jh_ef-234">
          <mxGeometry relative="1" as="geometry">
            <Array as="points">
              <mxPoint x="335" y="1380" />
              <mxPoint x="660" y="1380" />
              <mxPoint x="660" y="880" />
              <mxPoint x="865" y="880" />
            </Array>
          </mxGeometry>
        </mxCell>
      </root>
    </mxGraphModel>
  </diagram>
</mxfile>
